M48
; DRILL file {KiCad (6.0.5-0)} date 2022 June 12, Sunday 11:02:25
; FORMAT={-:-/ absolute / metric / decimal}
; #@! TF.CreationDate,2022-06-12T11:02:25+09:00
; #@! TF.GenerationSoftware,Kicad,Pcbnew,(6.0.5-0)
; #@! TF.FileFunction,Plated,1,2,PTH
FMAT,2
METRIC
; #@! TA.AperFunction,Plated,PTH,ViaDrill
T1C0.400
; #@! TA.AperFunction,Plated,PTH,ComponentDrill
T2C0.800
; #@! TA.AperFunction,Plated,PTH,ComponentDrill
T3C1.000
; #@! TA.AperFunction,Plated,PTH,ComponentDrill
T4C1.016
; #@! TA.AperFunction,Plated,PTH,ComponentDrill
T5C3.048
%
G90
G05
T1
X3.81Y27.94
X3.81Y7.62
X8.128Y45.72
X8.128Y34.798
X8.89Y29.21
X8.89Y10.16
X13.716Y14.224
X14.224Y26.67
X14.478Y19.304
X16.51Y41.91
X17.78Y26.67
X21.082Y2.794
X27.94Y14.224
X33.782Y39.37
X34.036Y47.498
X35.56Y5.08
X39.37Y43.18
X44.958Y34.036
X48.26Y44.45
X49.53Y8.89
X52.07Y13.97
X53.34Y35.306
X53.34Y29.21
X57.15Y31.75
X57.15Y28.194
X57.658Y45.72
X57.658Y42.926
X58.42Y5.842
X63.5Y18.542
T2
X17.566Y7.874
X22.566Y7.874
T3
X3.795Y15.24
X3.825Y24.13
X6.335Y15.24
X6.365Y24.13
X8.875Y15.24
X8.905Y24.13
X11.43Y45.72
X13.97Y45.72
X16.51Y45.72
X19.05Y45.72
X21.59Y45.72
X24.13Y45.72
X26.67Y45.72
X35.56Y7.62
X38.1Y7.62
X40.64Y7.62
X59.69Y13.97
X59.69Y11.43
X59.715Y34.27
X59.715Y31.73
X59.715Y29.19
X59.715Y26.65
X59.715Y24.11
X59.715Y21.57
X59.715Y19.03
X63.5Y45.72
X63.5Y43.18
T4
X18.796Y50.8
X21.336Y50.8
X23.876Y50.8
X26.416Y50.8
X27.94Y2.54
X28.956Y50.8
X30.48Y2.54
X31.496Y50.8
X33.02Y2.54
X34.036Y50.8
X35.56Y2.54
X36.576Y50.8
X38.1Y2.54
X39.116Y50.8
X40.64Y2.54
X41.656Y50.8
X43.18Y2.54
X45.72Y50.8
X45.72Y2.54
X48.26Y50.8
X50.8Y50.8
X50.8Y2.54
X53.34Y50.8
X53.34Y2.54
X55.88Y50.8
X55.88Y2.54
X58.42Y50.8
X58.42Y2.54
X60.96Y50.8
X60.96Y2.54
X63.5Y50.8
X63.5Y2.54
T5
X13.97Y2.54
X15.24Y50.8
X66.04Y35.56
X66.04Y7.62
T0
M30
