%TF.GenerationSoftware,KiCad,Pcbnew,(6.0.5-0)*%
%TF.CreationDate,2022-06-20T12:07:11+09:00*%
%TF.ProjectId,esp32-walkie-talkie-v2,65737033-322d-4776-916c-6b69652d7461,rev?*%
%TF.SameCoordinates,PX69db1f0PY7882d48*%
%TF.FileFunction,Soldermask,Bot*%
%TF.FilePolarity,Negative*%
%FSLAX46Y46*%
G04 Gerber Fmt 4.6, Leading zero omitted, Abs format (unit mm)*
G04 Created by KiCad (PCBNEW (6.0.5-0)) date 2022-06-20 12:07:11*
%MOMM*%
%LPD*%
G01*
G04 APERTURE LIST*
%TA.AperFunction,Profile*%
%ADD10C,0.150000*%
%TD*%
%ADD11R,1.700000X1.700000*%
%ADD12O,1.700000X1.700000*%
%ADD13O,1.727200X2.032000*%
%ADD14C,4.064000*%
%ADD15C,1.600000*%
G04 APERTURE END LIST*
D10*
X68580000Y37846000D02*
X66040000Y40386000D01*
X66040000Y0D02*
X66040000Y2540000D01*
X66040000Y51816000D02*
X64516000Y53340000D01*
X66040000Y2540000D02*
X68580000Y5080000D01*
X0Y53340000D02*
X0Y0D01*
X68580000Y5080000D02*
X68580000Y37846000D01*
X0Y0D02*
X66040000Y0D01*
X64516000Y53340000D02*
X0Y53340000D01*
X66040000Y40386000D02*
X66040000Y51816000D01*
D11*
%TO.C,J6*%
X26670000Y45720000D03*
D12*
X24130000Y45720000D03*
X21590000Y45720000D03*
X19050000Y45720000D03*
X16510000Y45720000D03*
X13970000Y45720000D03*
X11430000Y45720000D03*
%TD*%
D13*
%TO.C,P1*%
X27940000Y2540000D03*
X30480000Y2540000D03*
X33020000Y2540000D03*
X35560000Y2540000D03*
X38100000Y2540000D03*
X40640000Y2540000D03*
X43180000Y2540000D03*
X45720000Y2540000D03*
%TD*%
%TO.C,P2*%
X50800000Y2540000D03*
X53340000Y2540000D03*
X55880000Y2540000D03*
X58420000Y2540000D03*
X60960000Y2540000D03*
X63500000Y2540000D03*
%TD*%
%TO.C,P3*%
X18796000Y50800000D03*
X21336000Y50800000D03*
X23876000Y50800000D03*
X26416000Y50800000D03*
X28956000Y50800000D03*
X31496000Y50800000D03*
X34036000Y50800000D03*
X36576000Y50800000D03*
X39116000Y50800000D03*
X41656000Y50800000D03*
%TD*%
%TO.C,P4*%
X45720000Y50800000D03*
X48260000Y50800000D03*
X50800000Y50800000D03*
X53340000Y50800000D03*
X55880000Y50800000D03*
X58420000Y50800000D03*
X60960000Y50800000D03*
X63500000Y50800000D03*
%TD*%
D14*
%TO.C,P5*%
X13970000Y2540000D03*
%TD*%
%TO.C,P6*%
X66040000Y7620000D03*
%TD*%
%TO.C,P7*%
X15240000Y50800000D03*
%TD*%
%TO.C,P8*%
X66040000Y35560000D03*
%TD*%
D11*
%TO.C,J3*%
X59715000Y34270000D03*
D12*
X59715000Y31730000D03*
X59715000Y29190000D03*
X59715000Y26650000D03*
X59715000Y24110000D03*
X59715000Y21570000D03*
X59715000Y19030000D03*
%TD*%
D15*
%TO.C,C4*%
X17566000Y7874000D03*
X22566000Y7874000D03*
%TD*%
D11*
%TO.C,J2*%
X8875000Y15240000D03*
D12*
X6335000Y15240000D03*
X3795000Y15240000D03*
%TD*%
D11*
%TO.C,J7*%
X63500000Y43180000D03*
D12*
X63500000Y45720000D03*
%TD*%
D11*
%TO.C,J1*%
X3825000Y24130000D03*
D12*
X6365000Y24130000D03*
X8905000Y24130000D03*
%TD*%
D11*
%TO.C,J5*%
X59690000Y13970000D03*
D12*
X59690000Y11430000D03*
%TD*%
D11*
%TO.C,J4*%
X35560000Y7620000D03*
D12*
X38100000Y7620000D03*
X40640000Y7620000D03*
%TD*%
M02*
