%TF.GenerationSoftware,KiCad,Pcbnew,(6.0.5-0)*%
%TF.CreationDate,2022-06-12T17:20:29+09:00*%
%TF.ProjectId,esp32-walkie-talkie-v2,65737033-322d-4776-916c-6b69652d7461,rev?*%
%TF.SameCoordinates,PX69db1f0PY7882d48*%
%TF.FileFunction,Soldermask,Top*%
%TF.FilePolarity,Negative*%
%FSLAX46Y46*%
G04 Gerber Fmt 4.6, Leading zero omitted, Abs format (unit mm)*
G04 Created by KiCad (PCBNEW (6.0.5-0)) date 2022-06-12 17:20:29*
%MOMM*%
%LPD*%
G01*
G04 APERTURE LIST*
G04 Aperture macros list*
%AMRoundRect*
0 Rectangle with rounded corners*
0 $1 Rounding radius*
0 $2 $3 $4 $5 $6 $7 $8 $9 X,Y pos of 4 corners*
0 Add a 4 corners polygon primitive as box body*
4,1,4,$2,$3,$4,$5,$6,$7,$8,$9,$2,$3,0*
0 Add four circle primitives for the rounded corners*
1,1,$1+$1,$2,$3*
1,1,$1+$1,$4,$5*
1,1,$1+$1,$6,$7*
1,1,$1+$1,$8,$9*
0 Add four rect primitives between the rounded corners*
20,1,$1+$1,$2,$3,$4,$5,0*
20,1,$1+$1,$4,$5,$6,$7,0*
20,1,$1+$1,$6,$7,$8,$9,0*
20,1,$1+$1,$8,$9,$2,$3,0*%
G04 Aperture macros list end*
%TA.AperFunction,Profile*%
%ADD10C,0.150000*%
%TD*%
%ADD11O,1.727200X2.032000*%
%ADD12C,4.064000*%
%ADD13RoundRect,0.200000X0.200000X0.275000X-0.200000X0.275000X-0.200000X-0.275000X0.200000X-0.275000X0*%
%ADD14R,1.700000X1.700000*%
%ADD15O,1.700000X1.700000*%
%ADD16RoundRect,0.200000X-0.275000X0.200000X-0.275000X-0.200000X0.275000X-0.200000X0.275000X0.200000X0*%
%ADD17C,1.600000*%
%ADD18RoundRect,0.225000X-0.225000X-0.250000X0.225000X-0.250000X0.225000X0.250000X-0.225000X0.250000X0*%
%ADD19RoundRect,0.250000X-1.500000X-0.550000X1.500000X-0.550000X1.500000X0.550000X-1.500000X0.550000X0*%
%ADD20RoundRect,0.250000X-0.412500X-0.925000X0.412500X-0.925000X0.412500X0.925000X-0.412500X0.925000X0*%
G04 APERTURE END LIST*
D10*
X68580000Y37846000D02*
X66040000Y40386000D01*
X66040000Y0D02*
X66040000Y2540000D01*
X66040000Y51816000D02*
X64516000Y53340000D01*
X66040000Y2540000D02*
X68580000Y5080000D01*
X0Y53340000D02*
X0Y0D01*
X68580000Y5080000D02*
X68580000Y37846000D01*
X0Y0D02*
X66040000Y0D01*
X64516000Y53340000D02*
X0Y53340000D01*
X66040000Y40386000D02*
X66040000Y51816000D01*
D11*
%TO.C,P1*%
X27940000Y2540000D03*
X30480000Y2540000D03*
X33020000Y2540000D03*
X35560000Y2540000D03*
X38100000Y2540000D03*
X40640000Y2540000D03*
X43180000Y2540000D03*
X45720000Y2540000D03*
%TD*%
%TO.C,P2*%
X50800000Y2540000D03*
X53340000Y2540000D03*
X55880000Y2540000D03*
X58420000Y2540000D03*
X60960000Y2540000D03*
X63500000Y2540000D03*
%TD*%
%TO.C,P3*%
X18796000Y50800000D03*
X21336000Y50800000D03*
X23876000Y50800000D03*
X26416000Y50800000D03*
X28956000Y50800000D03*
X31496000Y50800000D03*
X34036000Y50800000D03*
X36576000Y50800000D03*
X39116000Y50800000D03*
X41656000Y50800000D03*
%TD*%
%TO.C,P4*%
X45720000Y50800000D03*
X48260000Y50800000D03*
X50800000Y50800000D03*
X53340000Y50800000D03*
X55880000Y50800000D03*
X58420000Y50800000D03*
X60960000Y50800000D03*
X63500000Y50800000D03*
%TD*%
D12*
%TO.C,P5*%
X13970000Y2540000D03*
%TD*%
%TO.C,P6*%
X66040000Y7620000D03*
%TD*%
%TO.C,P7*%
X15240000Y50800000D03*
%TD*%
%TO.C,P8*%
X66040000Y35560000D03*
%TD*%
D13*
%TO.C,R1*%
X29527000Y8890000D03*
X27877000Y8890000D03*
%TD*%
D14*
%TO.C,J3*%
X59715000Y34270000D03*
D15*
X59715000Y31730000D03*
X59715000Y29190000D03*
X59715000Y26650000D03*
X59715000Y24110000D03*
X59715000Y21570000D03*
X59715000Y19030000D03*
%TD*%
D16*
%TO.C,R2*%
X31750000Y8953000D03*
X31750000Y7303000D03*
%TD*%
D17*
%TO.C,C4*%
X17566000Y7874000D03*
X22566000Y7874000D03*
%TD*%
D18*
%TO.C,C1*%
X6845000Y17780000D03*
X8395000Y17780000D03*
%TD*%
D14*
%TO.C,J2*%
X8875000Y15240000D03*
D15*
X6335000Y15240000D03*
X3795000Y15240000D03*
%TD*%
D14*
%TO.C,J7*%
X63500000Y43180000D03*
D15*
X63500000Y45720000D03*
%TD*%
D14*
%TO.C,J1*%
X3825000Y24130000D03*
D15*
X6365000Y24130000D03*
X8905000Y24130000D03*
%TD*%
D19*
%TO.C,C3*%
X17366000Y16256000D03*
X22766000Y16256000D03*
%TD*%
D14*
%TO.C,J6*%
X26670000Y45720000D03*
D15*
X24130000Y45720000D03*
X21590000Y45720000D03*
X19050000Y45720000D03*
X16510000Y45720000D03*
X13970000Y45720000D03*
X11430000Y45720000D03*
%TD*%
D20*
%TO.C,C2*%
X6082500Y20320000D03*
X9157500Y20320000D03*
%TD*%
D14*
%TO.C,J5*%
X59690000Y13970000D03*
D15*
X59690000Y11430000D03*
%TD*%
D14*
%TO.C,J4*%
X35560000Y7620000D03*
D15*
X38100000Y7620000D03*
X40640000Y7620000D03*
%TD*%
M02*
